<svg xmlns="http://www.w3.org/2000/svg" viewBox="0 0 1200 660" font-family="'Segoe UI',Roboto,Helvetica,Arial,sans-serif">
  <defs>
    <linearGradient id="bg" x1="0" y1="0" x2="0" y2="1">
      <stop offset="0" stop-color="#0b1220"/>
      <stop offset="1" stop-color="#070b14"/>
    </linearGradient>
    <linearGradient id="redflag" x1="0" y1="0" x2="1" y2="0">
      <stop offset="0" stop-color="#ef4444"/>
      <stop offset="1" stop-color="#b91c1c"/>
    </linearGradient>
  </defs>

  <rect width="1200" height="660" fill="url(#bg)"/>

  <!-- Sidebar -->
  <rect x="0" y="0" width="220" height="660" fill="#0e1726"/>
  <circle cx="38" cy="44" r="14" fill="#22d3ee"/>
  <path d="M32 44 l5 6 l9 -12" stroke="#0e1726" stroke-width="3" fill="none" stroke-linecap="round" stroke-linejoin="round"/>
  <text x="62" y="50" fill="#f8fafc" font-size="20" font-weight="700">GeoRacing</text>
  <g font-size="14" fill="#94a3b8">
    <rect x="16" y="92" width="188" height="34" rx="8" fill="#16243a"/>
    <text x="34" y="114" fill="#e2e8f0" font-weight="600">Race Control</text>
    <text x="34" y="160">Beacons</text>
    <text x="34" y="196">Circuit State</text>
    <text x="34" y="232">Emergencies</text>
    <text x="34" y="268">Incidents</text>
    <text x="34" y="304">Zones map</text>
    <text x="34" y="340">Orders</text>
    <text x="34" y="376">Users</text>
  </g>
  <g font-size="12">
    <circle cx="26" cy="620" r="5" fill="#22c55e"/>
    <text x="40" y="624" fill="#94a3b8">API connected</text>
  </g>

  <!-- Header -->
  <text x="252" y="56" fill="#f8fafc" font-size="26" font-weight="800" letter-spacing="1">RACE CONTROL DASHBOARD</text>
  <text x="252" y="80" fill="#64748b" font-size="13">Circuit de Barcelona · live</text>

  <!-- Metric cards -->
  <!-- Circuit status: RED FLAG -->
  <rect x="252" y="104" width="220" height="104" rx="12" fill="#111c2e" stroke="#7f1d1d"/>
  <text x="272" y="132" fill="#94a3b8" font-size="12">CIRCUIT STATE</text>
  <rect x="272" y="146" width="118" height="34" rx="17" fill="url(#redflag)"/>
  <text x="331" y="169" fill="#fff" font-size="15" font-weight="800" text-anchor="middle">RED FLAG</text>
  <text x="272" y="196" fill="#64748b" font-size="11">updated 12:04:51</text>

  <!-- Beacons -->
  <rect x="488" y="104" width="220" height="104" rx="12" fill="#111c2e" stroke="#1e293b"/>
  <text x="508" y="132" fill="#94a3b8" font-size="12">BEACONS</text>
  <text x="508" y="172" fill="#f8fafc" font-size="30" font-weight="800">34</text>
  <text x="556" y="172" fill="#64748b" font-size="12">total</text>
  <circle cx="512" cy="190" r="4" fill="#22c55e"/><text x="524" y="194" fill="#22c55e" font-size="12">31 online</text>
  <circle cx="610" cy="190" r="4" fill="#ef4444"/><text x="622" y="194" fill="#ef4444" font-size="12">3 offline</text>

  <!-- Incidents -->
  <rect x="724" y="104" width="220" height="104" rx="12" fill="#111c2e" stroke="#1e293b"/>
  <text x="744" y="132" fill="#94a3b8" font-size="12">INCIDENTS</text>
  <text x="744" y="174" fill="#fbbf24" font-size="30" font-weight="800">2</text>
  <text x="744" y="196" fill="#64748b" font-size="11">active now</text>

  <!-- Evacuation -->
  <rect x="960" y="104" width="216" height="104" rx="12" fill="#111c2e" stroke="#1e293b"/>
  <text x="980" y="132" fill="#94a3b8" font-size="12">EVACUATION</text>
  <text x="980" y="172" fill="#22c55e" font-size="20" font-weight="800">STANDBY</text>
  <text x="980" y="196" fill="#64748b" font-size="11">zones armed: 0 / 8</text>

  <!-- Beacon fleet panel -->
  <rect x="252" y="228" width="456" height="396" rx="12" fill="#0f1a2b" stroke="#1e293b"/>
  <text x="272" y="258" fill="#e2e8f0" font-size="15" font-weight="700">Beacon fleet</text>
  <text x="660" y="258" fill="#38bdf8" font-size="12" text-anchor="end">Send command</text>
  <g font-size="13">
    <!-- rows -->
    <g>
      <rect x="268" y="276" width="424" height="58" rx="8" fill="#13233a"/>
      <circle cx="290" cy="305" r="6" fill="#22c55e"/>
      <text x="308" y="300" fill="#f1f5f9" font-weight="600">Z1 · Main grandstand</text>
      <text x="308" y="320" fill="#64748b" font-size="11">RED FLAG · seq 412 · 24°C</text>
      <rect x="600" y="289" width="78" height="30" rx="15" fill="url(#redflag)"/>
      <text x="639" y="309" fill="#fff" font-size="11" font-weight="700" text-anchor="middle">RED</text>
    </g>
    <g transform="translate(0,68)">
      <rect x="268" y="276" width="424" height="58" rx="8" fill="#13233a"/>
      <circle cx="290" cy="305" r="6" fill="#22c55e"/>
      <text x="308" y="300" fill="#f1f5f9" font-weight="600">Z3 · Paddock</text>
      <text x="308" y="320" fill="#64748b" font-size="11">SAFETY CAR · seq 410 · 25°C</text>
      <rect x="588" y="289" width="90" height="30" rx="15" fill="#a16207"/>
      <text x="633" y="309" fill="#fff" font-size="11" font-weight="700" text-anchor="middle">SC</text>
    </g>
    <g transform="translate(0,136)">
      <rect x="268" y="276" width="424" height="58" rx="8" fill="#13233a"/>
      <circle cx="290" cy="305" r="6" fill="#22c55e"/>
      <text x="308" y="300" fill="#f1f5f9" font-weight="600">Z5 · Fan zone</text>
      <text x="308" y="320" fill="#64748b" font-size="11">NORMAL · seq 409 · 26°C</text>
      <rect x="582" y="289" width="96" height="30" rx="15" fill="#15803d"/>
      <text x="630" y="309" fill="#fff" font-size="11" font-weight="700" text-anchor="middle">NORMAL</text>
    </g>
    <g transform="translate(0,204)">
      <rect x="268" y="276" width="424" height="58" rx="8" fill="#13233a"/>
      <circle cx="290" cy="305" r="6" fill="#ef4444"/>
      <text x="308" y="300" fill="#f1f5f9" font-weight="600">Z7 · North parking</text>
      <text x="308" y="320" fill="#64748b" font-size="11">offline · last seen 11:58</text>
      <rect x="588" y="289" width="90" height="30" rx="15" fill="#334155"/>
      <text x="633" y="309" fill="#cbd5e1" font-size="11" font-weight="700" text-anchor="middle">OFF</text>
    </g>
  </g>

  <!-- Circuit map panel -->
  <rect x="724" y="228" width="452" height="396" rx="12" fill="#0f1a2b" stroke="#1e293b"/>
  <text x="744" y="258" fill="#e2e8f0" font-size="15" font-weight="700">Circuit map</text>
  <!-- track -->
  <path d="M812 420 C 770 360 800 300 860 300 L 1040 300 C 1110 300 1120 360 1070 392
           C 1030 418 1040 470 1000 486 C 950 506 900 470 880 500 C 858 532 812 500 812 420 Z"
        fill="none" stroke="#1f3350" stroke-width="16" stroke-linejoin="round"/>
  <path d="M812 420 C 770 360 800 300 860 300 L 1040 300 C 1110 300 1120 360 1070 392
           C 1030 418 1040 470 1000 486 C 950 506 900 470 880 500 C 858 532 812 500 812 420 Z"
        fill="none" stroke="#2b4a6f" stroke-width="2"/>
  <!-- start/finish -->
  <rect x="852" y="292" width="10" height="16" fill="#e2e8f0"/>
  <!-- zone beacons on track -->
  <circle cx="860" cy="300" r="7" fill="#ef4444"/><text x="860" y="286" fill="#fca5a5" font-size="10" text-anchor="middle">Z1</text>
  <circle cx="1040" cy="300" r="7" fill="#eab308"/><text x="1040" y="286" fill="#fde68a" font-size="10" text-anchor="middle">Z3</text>
  <circle cx="1000" cy="486" r="7" fill="#22c55e"/><text x="1000" y="506" fill="#86efac" font-size="10" text-anchor="middle">Z5</text>
  <circle cx="812" cy="420" r="7" fill="#64748b"/><text x="792" y="424" fill="#94a3b8" font-size="10">Z7</text>
  <!-- user dot -->
  <circle cx="930" cy="300" r="6" fill="#38bdf8" stroke="#0f1a2b" stroke-width="2"/>
  <text x="744" y="600" fill="#64748b" font-size="11">BLE zone detection · heading-up navigation · evacuation arrows in ~300 ms</text>

  <!-- footer caption -->
  <text x="252" y="648" fill="#475569" font-size="11">Illustrative mock of the React control panel — see web-panel/ for the real application.</text>
</svg>
